Motion_sv01_j
version=1
nRows=5
nColumns=43
inDegrees=yes
endheader
time	pelvis_tilt	pelvis_list	pelvis_rotation	pelvis_tx	pelvis_ty	pelvis_tz	hip_flexion_r	hip_adduction_r	hip_rotation_r	knee_angle_r	ankle_angle_r	subtalar_angle_r	mtp_angle_r	hip_flexion_l	hip_adduction_l	hip_rotation_l	knee_angle_l	ankle_angle_l	subtalar_angle_l	mtp_angle_l	lumbar_extension	lumbar_bending	lumbar_rotation	neck_flexion	neck_lateral_bending	neck_rotation	arm_flex_r	arm_add_r	arm_rot_r	elbow_flex_r	pro_sup_r	wrist_flex_r	wrist_dev_r	hand_finger_flex_r	arm_flex_l	arm_add_l	arm_rot_l	elbow_flex_l	pro_sup_l	wrist_flex_l	wrist_dev_l	hand_finger_flex_l
      2.90000000	      7.55098560	     13.79086932	    -75.28068931	     -0.13027019	      0.93811515	      0.30359946	      9.34719657	     -4.96137938	    -10.01733618	    -21.62357057	     18.90639047	     -7.18099087	      4.66511165	     12.45087409	     -2.77302463	     -7.18665022	    -21.45247578	     -5.46877200	     20.50593926	     30.83615530	    -37.69603469	     -3.38865589	      5.12144571	     -9.03721838	     18.38553548	    -18.29452236	     79.70140711	    -40.37737154	      8.80085130	     56.46408555	    154.03562359	    -54.86129659	    -15.00289082	     34.49965824	    -11.31513503	    -10.28696174	      2.32344197	    102.47291572	    125.81084301	    -10.93488870	    -20.76082306	     20.03836316
      2.90250000	      7.58098736	     13.77753380	    -75.22414236	     -0.13041120	      0.93810532	      0.30259358	      9.36340950	     -4.98290476	    -10.02541364	    -21.59926158	     18.91373374	     -7.18285789	      4.65824837	     12.48286801	     -2.74175459	     -7.19460765	    -21.42547967	     -5.46754109	     20.51281040	     30.83380020	    -37.72445132	     -3.38257787	      5.16760262	     -9.04176373	     18.38160238	    -18.30363527	     79.78495328	    -40.45785167	      8.75776830	     56.42649827	    154.02881341	    -54.85015788	    -14.99446836	     34.49516673	    -11.38248090	    -10.29773909	      2.32809763	    102.46676546	    125.80947088	    -10.93372617	    -20.76517810	     20.04248044
      2.90500000	      7.69668279	     13.81269906	    -75.13496904	     -0.13019516	      0.93815238	      0.30117343	      9.36727848	     -5.15127845	    -10.24296037	    -21.46082828	     19.02234871	     -7.24622670	      4.58047909	     12.55665807	     -2.56733794	     -7.12557868	    -21.36699655	     -5.50207245	     20.60751394	     30.80565211	    -37.74429164	     -3.39575395	      5.26099343	     -8.83495442	     18.38989034	    -18.51975368	     80.09404240	    -40.70292527	      8.88091618	     56.15834183	    154.06025572	    -54.70256864	    -15.06119736	     34.45317782	    -11.27461016	    -10.25052393	      2.50742074	    102.40981680	    125.80838366	    -10.88307110	    -20.80416570	     20.08041992
      2.90750000	      7.72398849	     13.79818297	    -75.07855538	     -0.13037338	      0.93815046	      0.30014766	      9.38319837	     -5.16586115	    -10.25002192	    -21.43558943	     19.02808891	     -7.24484694	      4.57283706	     12.58928283	     -2.54234961	     -7.12949318	    -21.33992793	     -5.50198487	     20.61241081	     30.80278341	    -37.77669888	     -3.39227525	      5.30466668	     -8.84417245	     18.38199692	    -18.53443238	     80.17521296	    -40.78643482	      8.83816307	     56.12729230	    154.05127391	    -54.69553033	    -15.05145884	     34.44604712	    -11.34159316	    -10.26088396	      2.51128968	    102.40516513	    125.80573349	    -10.88161923	    -20.81070471	     20.08431613
      2.91000000	      7.81693428	     13.82737385	    -74.98393187	     -0.13018612	      0.93821645	      0.29871974	      9.36462599	     -5.30261081	    -10.45898614	    -21.25275054	     19.12700771	     -7.29160953	      4.47949234	     12.66313067	     -2.39095306	     -7.01992542	    -21.27812985	     -5.55312673	     20.70224317	     30.76659254	    -37.79824042	     -3.38267050	      5.42805029	     -8.63587443	     18.36444467	    -18.81677494	     80.48126291	    -41.06045617	      8.97964284	     55.87871043	    154.05950323	    -54.56629143	    -15.10349229	     34.37359195	    -11.22868035	    -10.21001778	      2.69156326	    102.33412385	    125.80031812	    -10.82050516	    -20.87010975	     20.12357540
